<svg width="1080" height="1080" viewBox="0 0 1080 1080" fill="none" xmlns="http://www.w3.org/2000/svg">
<g clip-path="url(#clip0_1_2)">
<path d="M1080 0H0V1080H1080V0Z" fill="#00322E"/>
<path d="M545.64 125.86C572.29 133.07 565.04 167.07 564.96 187.92C736.96 197.21 883.16 344.76 892.54 516.52C909.64 517.79 934.87 510.29 948.01 524.63C956.46 533.85 955.39 550.31 946.51 558.78C945.11 560.12 937.33 564.74 935.54 565.11C929.06 566.45 894.12 563.9 892.59 565.4C881.67 736.87 736.63 882.35 564.89 892.35C562.41 894.08 565 928.54 563.71 934.91C560.91 948.69 543.09 957.84 530.12 952.68C506.81 943.41 517.39 910.66 514.15 892.35C342.66 881.59 197.55 735.97 187.53 564.32C170.11 563.63 129.24 569.58 126.48 544.49C122.34 506.86 163.12 515.48 187.51 514.47C198.25 343.08 344.27 196.66 516.12 187.91V149.76C516.12 148.62 518.48 141.14 519.15 139.56C522.43 131.89 528.74 128.01 536.47 125.85H545.63L545.64 125.86ZM516.14 236.75C467.46 241.94 421.92 255.75 380.3 281.49C299.22 331.65 244.95 418.86 237.39 514.48H276.56C281.61 514.48 293.88 524.09 295.01 529.82C307.29 528.58 328.78 517.34 340.37 518.74C354.51 520.45 375.09 540.14 389.45 544.55L448.4 527.62C454.19 515.22 458.58 501.48 462.18 488.08L387.45 480.89C374.84 480.95 369.9 472.43 363.11 463.52C357.36 455.99 334.41 423.65 334.09 416.21C333.87 411.23 338.76 404.46 343.75 403.64C350.85 402.48 353.62 404.74 357.85 409.77C369.24 423.32 377.87 441.67 389.71 455.23L452.04 461.56C439.2 441.94 444.83 413.87 455.58 394.41C462.51 381.87 472.2 372.81 483.44 364.21C482.62 353.33 465.88 325.23 484.31 321.42C504.91 317.16 501.65 345.06 507.93 357.36C543.89 357.59 584.3 385.02 586.83 422.91L635.68 385.28C637.53 376.01 636.6 366.57 637.15 357.25C637.7 347.94 637.56 333.4 639.43 324.95C641.62 315.09 655.41 312.71 661.6 321.69C665.73 327.67 662.69 331.09 662.58 336.91C662.31 350.67 662.4 365.02 661.65 378.7C661.49 381.65 660.63 395.22 660.07 396.45C659.38 397.96 655.65 400.45 654.72 402.58L591.44 450.9L623.52 476.86L627.29 476.61L683.21 460.54C692.09 448.67 696.56 434.06 704.54 421.59C706.39 418.7 708.84 414.29 711.52 412.3C716.89 408.3 749.6 399.05 757.19 397.95C778.14 394.9 782.56 415 766.18 422.2C754.32 427.41 739.3 427.36 727.79 433.66C718.11 449.29 711.28 466.61 700.25 481.4C684.02 488.68 663.95 490.55 647.76 497.1C646.73 497.51 646.01 496.54 646.36 498.71L671.49 524.45C688.56 526.96 706.06 525.84 723.15 527.73C735 529.04 740.43 528.75 746.6 539.89C750.04 546.1 764.66 582.53 767.4 584.2L821.63 587.96C835 593.36 832.14 611.47 818.44 612.61C801.63 614.01 780.22 607.97 762.85 609.1C753.8 607.98 751.76 608.48 746.87 600.66C741.92 592.74 729.06 558.01 725.25 555.14C720.63 551.66 699.87 553.12 693.15 552.15C710.18 576.87 726.91 603.8 734.78 633.1C754.22 705.5 697.96 722.88 640.57 697.81C638.19 696.77 633.43 692.91 631.6 692.92C629.9 692.92 620.35 698.66 617.54 699.84C598.52 707.8 578.28 713.26 557.51 714.07C543.03 734.83 521.75 764.02 494.26 766.8C434.74 772.8 429.53 687.96 429.71 647.32C429.74 640.36 429.61 633.38 429.66 626.42C423.99 630.1 418.11 634.34 412.93 638.67C406.94 643.67 403.9 643.64 404.25 652.35C404.84 666.95 410.15 683.32 410.38 698.18C410.47 704.17 408.31 706.67 404.16 710.26C389.46 722.97 369.65 733.44 354.46 746.01C340.91 749.62 331.97 737.14 340.23 725.68L383.38 694.57C384.31 692.89 384.01 690.83 383.9 689C383.04 674.08 377.95 656.84 377.71 642.18C377.56 632.84 383.26 629.72 389.52 624.4C403.52 612.5 419.77 603.3 433.65 591.21L440.86 556.21L387.54 571.4C369.19 565.65 354.1 552.91 336.63 545.14C324.78 546.85 313.03 553.64 301.55 555.75C297.97 556.41 293.9 555.61 291.03 556.42C288.48 557.14 281.54 564.34 277.59 564.34H236.39C239.09 576.84 240.23 589.66 242.79 602.19C269.52 733.19 381.86 831.97 515.14 843.09V800.87C515.14 800.31 519.92 792.27 520.79 791.26C529.25 781.52 546.74 780.54 556.33 789.17C557.9 790.58 563.97 799.58 563.97 800.86V843.08C710.16 832.56 832.16 711.75 842.72 565.35H802.54C802.07 565.35 797.27 563.02 796.25 562.49C779.01 553.45 779.09 527.55 796.58 518.7C807.3 513.28 811.39 516.37 821.83 516.56C829.08 516.69 836.57 516.81 843.76 516C840.56 499.96 838.86 483.62 835.11 467.68C810.75 363.98 728.64 278.8 626.82 248.69C606.26 242.61 586.14 239.86 565 236.75V278.97C565 279.46 561.02 286.64 560.36 287.55C551.42 299.84 529.76 299.84 520.81 287.55C520.14 286.63 516.17 279.46 516.17 278.97V236.75H516.14ZM505.71 383.51C484.25 386.41 463.75 423.86 470.89 443.24C476.23 457.74 502.53 458.99 515.36 457.25C526.9 455.68 546.73 445.05 554.29 436.16C577.38 409.02 530.67 380.14 505.71 383.51ZM562.58 463.81C542.09 477.46 519.3 484.74 494.42 483.1C493.36 483.46 485.03 499.22 484.76 500.98C483.84 507.11 506.72 536.16 512.03 541.46C558.12 587.53 578.86 542.11 581.23 496.66C581.5 491.41 582.29 476.11 578.59 472.87C577.32 471.75 563.5 463.72 562.58 463.81ZM605.67 495.15C605.83 520.24 599.7 550.93 582.29 569.95C579.85 572.61 572.4 577.65 572.07 580.15C571.73 582.72 580.36 612.43 582.06 615.91C582.93 617.69 585.46 620.64 586.83 622.33C605.26 644.99 640.08 673.71 668.73 680.82C683.57 684.5 709.24 687.25 713.04 667.12C717.94 641.2 693.23 596.49 678.73 575.19C658.68 545.75 632.14 518.73 605.68 495.14L605.67 495.15ZM547.58 585.79C525.71 585.42 507.06 572.21 492.22 557.22L473.43 532.8C458.09 582.64 449.38 638.79 457.3 690.83C461.3 717.08 472.05 757.83 506.29 735.05C530.58 718.89 545.38 682.26 552.27 654.88C554.16 647.37 557.83 633.12 557.94 625.88C558.11 614.17 549.5 597.66 547.59 585.8L547.58 585.79ZM606.67 677.24C607.12 675.48 605.93 675.21 605.15 674.2C602.48 670.72 591.32 660.92 587.35 657.41C586.11 656.31 578.93 650.15 578.19 650.81L569.03 687.43C582.1 686.27 594.45 681.6 606.66 677.25L606.67 677.24Z" fill="#FEFEFE"/>
</g>
<defs>
<clipPath id="clip0_1_2">
<rect width="1080" height="1080" fill="white"/>
</clipPath>
</defs>
</svg>
