<svg width="828" height="830" viewBox="0 0 828 830" fill="none" xmlns="http://www.w3.org/2000/svg">
<path d="M419.64 0.860008C446.29 8.07001 439.04 42.07 438.96 62.92C610.96 72.21 757.16 219.76 766.54 391.52C783.64 392.79 808.87 385.29 822.01 399.63C830.46 408.85 829.39 425.31 820.51 433.78C819.11 435.12 811.33 439.74 809.54 440.11C803.06 441.45 768.12 438.9 766.59 440.4C755.67 611.87 610.63 757.35 438.89 767.35C436.41 769.08 439 803.54 437.71 809.91C434.91 823.69 417.09 832.84 404.12 827.68C380.81 818.41 391.39 785.66 388.15 767.35C216.66 756.59 71.55 610.97 61.53 439.32C44.11 438.63 3.23997 444.58 0.479971 419.49C-3.66003 381.86 37.12 390.48 61.51 389.47C72.25 218.08 218.27 71.66 390.12 62.91V24.76C390.12 23.62 392.48 16.14 393.15 14.56C396.43 6.89001 402.74 3.01001 410.47 0.850006H419.63L419.64 0.860008ZM390.14 111.75C341.46 116.94 295.92 130.75 254.3 156.49C173.22 206.65 118.95 293.86 111.39 389.48H150.56C155.61 389.48 167.88 399.09 169.01 404.82C181.29 403.58 202.78 392.34 214.37 393.74C228.51 395.45 249.09 415.14 263.45 419.55L322.4 402.62C328.19 390.22 332.58 376.48 336.18 363.08L261.45 355.89C248.84 355.95 243.9 347.43 237.11 338.52C231.36 330.99 208.41 298.65 208.09 291.21C207.87 286.23 212.76 279.46 217.75 278.64C224.85 277.48 227.62 279.74 231.85 284.77C243.24 298.32 251.87 316.67 263.71 330.23L326.04 336.56C313.2 316.94 318.83 288.87 329.58 269.41C336.51 256.87 346.2 247.81 357.44 239.21C356.62 228.33 339.88 200.23 358.31 196.42C378.91 192.16 375.65 220.06 381.93 232.36C417.89 232.59 458.3 260.02 460.83 297.91L509.68 260.28C511.53 251.01 510.6 241.57 511.15 232.25C511.7 222.94 511.56 208.4 513.43 199.95C515.62 190.09 529.41 187.71 535.6 196.69C539.73 202.67 536.69 206.09 536.58 211.91C536.31 225.67 536.4 240.02 535.65 253.7C535.49 256.65 534.63 270.22 534.07 271.45C533.38 272.96 529.65 275.45 528.72 277.58L465.44 325.9L497.52 351.86L501.29 351.61L557.21 335.54C566.09 323.67 570.56 309.06 578.54 296.59C580.39 293.7 582.84 289.29 585.52 287.3C590.89 283.3 623.6 274.05 631.19 272.95C652.14 269.9 656.56 290 640.18 297.2C628.32 302.41 613.3 302.36 601.79 308.66C592.11 324.29 585.28 341.61 574.25 356.4C558.02 363.68 537.95 365.55 521.76 372.1C520.73 372.51 520.01 371.54 520.36 373.71L545.49 399.45C562.56 401.96 580.06 400.84 597.15 402.73C609 404.04 614.43 403.75 620.6 414.89C624.04 421.1 638.66 457.53 641.4 459.2L695.63 462.96C709 468.36 706.14 486.47 692.44 487.61C675.63 489.01 654.22 482.97 636.85 484.1C627.8 482.98 625.76 483.48 620.87 475.66C615.92 467.74 603.06 433.01 599.25 430.14C594.63 426.66 573.87 428.12 567.15 427.15C584.18 451.87 600.91 478.8 608.78 508.1C628.22 580.5 571.96 597.88 514.57 572.81C512.19 571.77 507.43 567.91 505.6 567.92C503.9 567.92 494.35 573.66 491.54 574.84C472.52 582.8 452.28 588.26 431.51 589.07C417.03 609.83 395.75 639.02 368.26 641.8C308.74 647.8 303.53 562.96 303.71 522.32C303.74 515.36 303.61 508.38 303.66 501.42C297.99 505.1 292.11 509.34 286.93 513.67C280.94 518.67 277.9 518.64 278.25 527.35C278.84 541.95 284.15 558.32 284.38 573.18C284.47 579.17 282.31 581.67 278.16 585.26C263.46 597.97 243.65 608.44 228.46 621.01C214.91 624.62 205.97 612.14 214.23 600.68L257.38 569.57C258.31 567.89 258.01 565.83 257.9 564C257.04 549.08 251.95 531.84 251.71 517.18C251.56 507.84 257.26 504.72 263.52 499.4C277.52 487.5 293.77 478.3 307.65 466.21L314.86 431.21L261.54 446.4C243.19 440.65 228.1 427.91 210.63 420.14C198.78 421.85 187.03 428.64 175.55 430.75C171.97 431.41 167.9 430.61 165.03 431.42C162.48 432.14 155.54 439.34 151.59 439.34H110.39C113.09 451.84 114.23 464.66 116.79 477.19C143.52 608.19 255.86 706.97 389.14 718.09V675.87C389.14 675.31 393.92 667.27 394.79 666.26C403.25 656.52 420.74 655.54 430.33 664.17C431.9 665.58 437.97 674.58 437.97 675.86V718.08C584.16 707.56 706.16 586.75 716.72 440.35H676.54C676.07 440.35 671.27 438.02 670.25 437.49C653.01 428.45 653.09 402.55 670.58 393.7C681.3 388.28 685.39 391.37 695.83 391.56C703.08 391.69 710.57 391.81 717.76 391C714.56 374.96 712.86 358.62 709.11 342.68C684.75 238.98 602.64 153.8 500.82 123.69C480.26 117.61 460.14 114.86 439 111.75V153.97C439 154.46 435.02 161.64 434.36 162.55C425.42 174.84 403.76 174.84 394.81 162.55C394.14 161.63 390.17 154.46 390.17 153.97V111.75H390.14ZM379.71 258.51C358.25 261.41 337.75 298.86 344.89 318.24C350.23 332.74 376.53 333.99 389.36 332.25C400.9 330.68 420.73 320.05 428.29 311.16C451.38 284.02 404.67 255.14 379.71 258.51ZM436.58 338.81C416.09 352.46 393.3 359.74 368.42 358.1C367.36 358.46 359.03 374.22 358.76 375.98C357.84 382.11 380.72 411.16 386.03 416.46C432.12 462.53 452.86 417.11 455.23 371.66C455.5 366.41 456.29 351.11 452.59 347.87C451.32 346.75 437.5 338.72 436.58 338.81ZM479.67 370.15C479.83 395.24 473.7 425.93 456.29 444.95C453.85 447.61 446.4 452.65 446.07 455.15C445.73 457.72 454.36 487.43 456.06 490.91C456.93 492.69 459.46 495.64 460.83 497.33C479.26 519.99 514.08 548.71 542.73 555.82C557.57 559.5 583.24 562.25 587.04 542.12C591.94 516.2 567.23 471.49 552.73 450.19C532.68 420.75 506.14 393.73 479.68 370.14L479.67 370.15ZM421.58 460.79C399.71 460.42 381.06 447.21 366.22 432.22L347.43 407.8C332.09 457.64 323.38 513.79 331.3 565.83C335.3 592.08 346.05 632.83 380.29 610.05C404.58 593.89 419.38 557.26 426.27 529.88C428.16 522.37 431.83 508.12 431.94 500.88C432.11 489.17 423.5 472.66 421.59 460.8L421.58 460.79ZM480.67 552.24C481.12 550.48 479.93 550.21 479.15 549.2C476.48 545.72 465.32 535.92 461.35 532.41C460.11 531.31 452.93 525.15 452.19 525.81L443.03 562.43C456.1 561.27 468.45 556.6 480.66 552.25L480.67 552.24Z" fill="#00322E"/>
</svg>
